<svg xmlns="http://www.w3.org/2000/svg" version="1.1" xmlns:xlink="http://www.w3.org/1999/xlink" width="512" height="512" x="0" y="0" viewBox="0 0 24 24" style="enable-background:new 0 0 512 512" xml:space="preserve" class=""><g><clipPath id="a"><path d="M0 0h24v24H0z" fill="#28304a" opacity="1" data-original="#000000" class=""></path></clipPath><g clip-path="url(#a)"><path fill="#28304a" fill-rule="evenodd" d="M12 2a2 2 0 0 1 2 2v15a2 2 0 1 1-4 0V4a2 2 0 0 1 2-2zM5 8a2 2 0 0 1 2 2v9a2 2 0 1 1-4 0v-9a2 2 0 0 1 2-2zm16 2a2 2 0 1 0-4 0v9a2 2 0 1 0 4 0z" clip-rule="evenodd" opacity="1" data-original="#000000" class=""></path></g></g></svg>